<svg width="36" height="32" viewBox="0 0 36 32" fill="none" xmlns="http://www.w3.org/2000/svg">
<g clip-path="url(#clip0_431_9019)">
<path d="M14.8147 6.66667C14.8147 5.95942 15.1268 5.28115 15.6825 4.78105C16.2382 4.28095 16.9918 4 17.7776 4C18.5635 4 19.3171 4.28095 19.8728 4.78105C20.4284 5.28115 20.7406 5.95942 20.7406 6.66667C22.4419 7.3907 23.8923 8.51777 24.9362 9.92707C25.9801 11.3364 26.5783 12.9748 26.6665 14.6667V18.6667C26.778 19.4956 27.1042 20.2894 27.6188 20.9842C28.1335 21.6789 28.8222 22.2552 29.6295 22.6667H5.92578C6.7331 22.2552 7.42179 21.6789 7.93643 20.9842C8.45106 20.2894 8.77725 19.4956 8.88874 18.6667V14.6667C8.97698 12.9748 9.57512 11.3364 10.619 9.92707C11.663 8.51777 13.1133 7.3907 14.8147 6.66667Z" stroke="#515B73" stroke-width="3" stroke-linecap="round" stroke-linejoin="round"/>
<path d="M13.333 22.666V23.9993C13.333 25.0602 13.8013 26.0776 14.6348 26.8278C15.4682 27.5779 16.5987 27.9993 17.7775 27.9993C18.9562 27.9993 20.0867 27.5779 20.9201 26.8278C21.7536 26.0776 22.2219 25.0602 22.2219 23.9993V22.666" stroke="#515B73" stroke-width="3" stroke-linecap="round" stroke-linejoin="round"/>
</g>
<defs>
<clipPath id="clip0_431_9019">
<rect width="35.5556" height="32" fill="white"/>
</clipPath>
</defs>
</svg>
