<svg width="33" height="33" viewBox="0 0 33 33" fill="none" xmlns="http://www.w3.org/2000/svg">
<g clip-path="url(#clip0_206_6384)">
<path d="M4.04785 25.7657C5.8937 24.6946 7.98756 24.1306 10.119 24.1306C12.2504 24.1306 14.3442 24.6946 16.1901 25.7657C18.0359 24.6946 20.1298 24.1306 22.2612 24.1306C24.3926 24.1306 26.4864 24.6946 28.3323 25.7657" stroke="white" stroke-width="3" stroke-linecap="round" stroke-linejoin="round"/>
<path d="M4.04785 8.1366C5.8937 7.0654 7.98756 6.50146 10.119 6.50146C12.2504 6.50146 14.3442 7.0654 16.1901 8.1366C18.0359 7.0654 20.1298 6.50146 22.2612 6.50146C24.3926 6.50146 26.4864 7.0654 28.3323 8.1366" stroke="white" stroke-width="3" stroke-linecap="round" stroke-linejoin="round"/>
<path d="M4.04785 8.13647V25.7656" stroke="white" stroke-width="3" stroke-linecap="round" stroke-linejoin="round"/>
<path d="M16.1895 8.13647V25.7656" stroke="white" stroke-width="3" stroke-linecap="round" stroke-linejoin="round"/>
<path d="M28.332 8.13647V25.7656" stroke="white" stroke-width="3" stroke-linecap="round" stroke-linejoin="round"/>
</g>
<defs>
<clipPath id="clip0_206_6384">
<rect width="32.3792" height="32.5461" fill="white"/>
</clipPath>
</defs>
</svg>
