<svg width="15" height="15" viewBox="0 0 15 15" fill="none" xmlns="http://www.w3.org/2000/svg">
<g clip-path="url(#clip0_129_7831)">
<path d="M11.1265 10.8074C11.1265 10.8074 11.1746 10.773 11.2515 10.7143C12.4033 9.82365 13.1265 8.53303 13.1265 7.09615C13.1265 4.4174 10.6077 2.24365 7.50146 2.24365C4.39521 2.24365 1.87646 4.4174 1.87646 7.09615C1.87646 9.77615 4.39521 11.8749 7.50146 11.8749C7.76646 11.8749 8.20147 11.8574 8.80647 11.8224C9.59522 12.3349 10.7465 12.7555 11.754 12.7555C12.0658 12.7555 12.2127 12.4993 12.0127 12.238C11.709 11.8655 11.2902 11.2687 11.1277 10.8068L11.1265 10.8074Z" stroke="#515B73" stroke-linecap="round" stroke-linejoin="round"/>
<path d="M4.6875 8.4375C6.25 10 8.75 10 10.3125 8.4375" stroke="#515B73" stroke-linecap="round" stroke-linejoin="round"/>
</g>
<defs>
<clipPath id="clip0_129_7831">
<rect width="15" height="15" fill="white"/>
</clipPath>
</defs>
</svg>
