<svg width="32" height="30" viewBox="0 0 32 30" fill="none" xmlns="http://www.w3.org/2000/svg">
<path d="M26 3.63992H23V2.73012C23 2.48882 22.8946 2.25741 22.7071 2.08679C22.5196 1.91617 22.2652 1.82031 22 1.82031C21.7348 1.82031 21.4804 1.91617 21.2929 2.08679C21.1054 2.25741 21 2.48882 21 2.73012V3.63992H11V2.73012C11 2.48882 10.8946 2.25741 10.7071 2.08679C10.5196 1.91617 10.2652 1.82031 10 1.82031C9.73478 1.82031 9.48043 1.91617 9.29289 2.08679C9.10536 2.25741 9 2.48882 9 2.73012V3.63992H6C5.46957 3.63992 4.96086 3.83163 4.58579 4.17287C4.21071 4.51411 4 4.97694 4 5.45953V23.6556C4 24.1382 4.21071 24.601 4.58579 24.9423C4.96086 25.2835 5.46957 25.4752 6 25.4752H26C26.5304 25.4752 27.0391 25.2835 27.4142 24.9423C27.7893 24.601 28 24.1382 28 23.6556V5.45953C28 4.97694 27.7893 4.51411 27.4142 4.17287C27.0391 3.83163 26.5304 3.63992 26 3.63992ZM9 5.45953V6.36933C9 6.61063 9.10536 6.84204 9.29289 7.01266C9.48043 7.18328 9.73478 7.27914 10 7.27914C10.2652 7.27914 10.5196 7.18328 10.7071 7.01266C10.8946 6.84204 11 6.61063 11 6.36933V5.45953H21V6.36933C21 6.61063 21.1054 6.84204 21.2929 7.01266C21.4804 7.18328 21.7348 7.27914 22 7.27914C22.2652 7.27914 22.5196 7.18328 22.7071 7.01266C22.8946 6.84204 23 6.61063 23 6.36933V5.45953H26V9.09874H6V5.45953H9ZM26 23.6556H6V10.9184H26V23.6556ZM14 13.6478V20.9262C14 21.1675 13.8946 21.3989 13.7071 21.5695C13.5196 21.7401 13.2652 21.836 13 21.836C12.7348 21.836 12.4804 21.7401 12.2929 21.5695C12.1054 21.3989 12 21.1675 12 20.9262V15.1194L11.4475 15.3718C11.2101 15.4798 10.9353 15.4976 10.6836 15.4212C10.4318 15.3449 10.2237 15.1807 10.105 14.9647C9.98632 14.7487 9.96679 14.4987 10.0507 14.2697C10.1346 14.0406 10.3151 13.8513 10.5525 13.7433L12.5525 12.8335C12.705 12.7641 12.8745 12.7313 13.0449 12.7382C13.2153 12.7452 13.3808 12.7917 13.5259 12.8733C13.671 12.9549 13.7907 13.0689 13.8736 13.2044C13.9566 13.34 14.0001 13.4926 14 13.6478ZM21.395 17.1107L19 20.0164H21C21.2652 20.0164 21.5196 20.1122 21.7071 20.2829C21.8946 20.4535 22 20.6849 22 20.9262C22 21.1675 21.8946 21.3989 21.7071 21.5695C21.5196 21.7401 21.2652 21.836 21 21.836H17C16.8143 21.836 16.6322 21.7889 16.4743 21.7001C16.3163 21.6113 16.1886 21.4842 16.1056 21.3331C16.0225 21.1819 15.9874 21.0128 16.004 20.8445C16.0207 20.6762 16.0886 20.5155 16.2 20.3803L19.7975 16.0167C19.8793 15.9176 19.938 15.8043 19.97 15.6838C20.002 15.5633 20.0066 15.4381 19.9835 15.316C19.9604 15.1938 19.9101 15.0772 19.8357 14.9734C19.7612 14.8695 19.6643 14.7806 19.5508 14.7121C19.4372 14.6436 19.3095 14.5969 19.1754 14.5749C19.0413 14.5529 18.9037 14.556 18.771 14.5842C18.6383 14.6123 18.5134 14.6648 18.4038 14.7384C18.2942 14.8121 18.2023 14.9053 18.1338 15.0125C18.07 15.1192 17.9834 15.2133 17.8791 15.2891C17.7748 15.365 17.6548 15.421 17.5263 15.454C17.3977 15.487 17.2633 15.4962 17.1308 15.4811C16.9983 15.466 16.8704 15.4269 16.7548 15.3661C16.6391 15.3054 16.5381 15.2241 16.4575 15.1273C16.3769 15.0304 16.3185 14.9198 16.2857 14.802C16.2528 14.6843 16.2462 14.5617 16.2663 14.4416C16.2864 14.3215 16.3327 14.2062 16.4025 14.1027C16.7328 13.5826 17.2425 13.1762 17.8525 12.9464C18.4625 12.7167 19.1388 12.6764 19.7765 12.8319C20.4142 12.9874 20.9778 13.3299 21.3798 13.8064C21.7818 14.2829 21.9998 14.8667 22 15.4674C22.0021 16.0607 21.7895 16.6382 21.395 17.1107Z" fill="#101010"/>
</svg>
