<svg width="30" height="30" viewBox="0 0 30 30" fill="none" xmlns="http://www.w3.org/2000/svg">
<path d="M29.0625 15C29.0635 13.9234 28.7996 12.863 28.294 11.9125C27.7885 10.9619 27.0569 10.1503 26.1636 9.54927C25.2704 8.94822 24.243 8.57617 23.172 8.46592C22.101 8.35568 21.0194 8.51062 20.0224 8.91709C19.0255 9.32355 18.1438 9.96906 17.4552 10.7967C16.7666 11.6243 16.2923 12.6087 16.0739 13.6629C15.8555 14.7172 15.8999 15.809 16.2031 16.842C16.5063 17.8751 17.059 18.8177 17.8125 19.5867V26.25C17.8124 26.4099 17.8532 26.5671 17.931 26.7068C18.0088 26.8465 18.121 26.964 18.257 27.0481C18.393 27.1321 18.5482 27.18 18.7079 27.1872C18.8676 27.1944 19.0265 27.1606 19.1695 27.0891L22.5 25.4227L25.8305 27.0891C25.9735 27.1606 26.1324 27.1944 26.2921 27.1872C26.4518 27.18 26.607 27.1321 26.743 27.0481C26.879 26.964 26.9912 26.8465 27.069 26.7068C27.1468 26.5671 27.1876 26.4099 27.1875 26.25V19.5867C28.3899 18.3629 29.0633 16.7157 29.0625 15ZM22.5 10.3125C23.4271 10.3125 24.3334 10.5874 25.1042 11.1025C25.8751 11.6176 26.4759 12.3496 26.8307 13.2062C27.1855 14.0627 27.2783 15.0052 27.0974 15.9145C26.9166 16.8238 26.4701 17.659 25.8146 18.3146C25.159 18.9701 24.3238 19.4166 23.4145 19.5974C22.5052 19.7783 21.5627 19.6855 20.7062 19.3307C19.8496 18.9759 19.1176 18.3751 18.6025 17.6042C18.0874 16.8334 17.8125 15.9271 17.8125 15C17.8125 13.7568 18.3064 12.5645 19.1854 11.6854C20.0645 10.8064 21.2568 10.3125 22.5 10.3125ZM22.9195 23.5359C22.7893 23.4708 22.6456 23.4368 22.5 23.4368C22.3544 23.4368 22.2107 23.4708 22.0805 23.5359L19.6875 24.7336V20.9285C20.5663 21.3459 21.5271 21.5625 22.5 21.5625C23.4729 21.5625 24.4337 21.3459 25.3125 20.9285V24.7336L22.9195 23.5359ZM15.9375 22.5C15.9375 22.7486 15.8387 22.9871 15.6629 23.1629C15.4871 23.3387 15.2486 23.4375 15 23.4375H4.6875C4.19022 23.4375 3.71331 23.24 3.36167 22.8883C3.01004 22.5367 2.8125 22.0598 2.8125 21.5625V6.5625C2.8125 6.06522 3.01004 5.58831 3.36167 5.23667C3.71331 4.88504 4.19022 4.6875 4.6875 4.6875H25.3125C25.8098 4.6875 26.2867 4.88504 26.6383 5.23667C26.99 5.58831 27.1875 6.06522 27.1875 6.5625C27.1875 6.81114 27.0887 7.0496 26.9129 7.22541C26.7371 7.40123 26.4986 7.5 26.25 7.5C26.0014 7.5 25.7629 7.40123 25.5871 7.22541C25.4113 7.0496 25.3125 6.81114 25.3125 6.5625H4.6875V21.5625H15C15.2486 21.5625 15.4871 21.6613 15.6629 21.8371C15.8387 22.0129 15.9375 22.2514 15.9375 22.5ZM14.0625 15.9375C14.0625 16.1861 13.9637 16.4246 13.7879 16.6004C13.6121 16.7762 13.3736 16.875 13.125 16.875H8.4375C8.18886 16.875 7.9504 16.7762 7.77459 16.6004C7.59877 16.4246 7.5 16.1861 7.5 15.9375C7.5 15.6889 7.59877 15.4504 7.77459 15.2746C7.9504 15.0988 8.18886 15 8.4375 15H13.125C13.3736 15 13.6121 15.0988 13.7879 15.2746C13.9637 15.4504 14.0625 15.6889 14.0625 15.9375ZM14.0625 12.1875C14.0625 12.4361 13.9637 12.6746 13.7879 12.8504C13.6121 13.0262 13.3736 13.125 13.125 13.125H8.4375C8.18886 13.125 7.9504 13.0262 7.77459 12.8504C7.59877 12.6746 7.5 12.4361 7.5 12.1875C7.5 11.9389 7.59877 11.7004 7.77459 11.5246C7.9504 11.3488 8.18886 11.25 8.4375 11.25H13.125C13.3736 11.25 13.6121 11.3488 13.7879 11.5246C13.9637 11.7004 14.0625 11.9389 14.0625 12.1875Z" fill="white" stroke="white" stroke-width="0.5"/>
</svg>
