<svg width="10" height="10" viewBox="0 0 10 10" fill="none" xmlns="http://www.w3.org/2000/svg">
<g clip-path="url(#clip0_235_5378)">
<path d="M8.71929 5.479C8.81912 4.70381 8.67425 3.9168 8.30491 3.22798C7.93558 2.53916 7.36025 1.98295 6.65934 1.6371C5.95843 1.29126 5.16697 1.17306 4.3956 1.29903C3.62423 1.425 2.9115 1.78885 2.35703 2.33971C1.80256 2.89057 1.43406 3.60091 1.30306 4.37145C1.17205 5.14198 1.28508 5.93419 1.62634 6.63734C1.9676 7.3405 2.52004 7.91945 3.20643 8.29327C3.89283 8.66709 4.67888 8.8171 5.4547 8.72233" stroke="white" stroke-linecap="round" stroke-linejoin="round"/>
<path d="M5 2.91602V4.99935L5.83333 5.83268" stroke="white" stroke-linecap="round" stroke-linejoin="round"/>
<path d="M9.16683 9.16732L7.0835 7.08398" stroke="white" stroke-linecap="round" stroke-linejoin="round"/>
<path d="M7.0835 9.16732L9.16683 7.08398" stroke="white" stroke-linecap="round" stroke-linejoin="round"/>
</g>
<defs>
<clipPath id="clip0_235_5378">
<rect width="10" height="10" fill="white"/>
</clipPath>
</defs>
</svg>
