<svg width="14" height="14" viewBox="0 0 14 14" fill="none" xmlns="http://www.w3.org/2000/svg">
<g clip-path="url(#clip0_315_10087)">
<path d="M8.16699 1.75V4.08333C8.16699 4.23804 8.22845 4.38642 8.33785 4.49581C8.44724 4.60521 8.59562 4.66667 8.75033 4.66667H11.0837" stroke="#515B73" stroke-linecap="round" stroke-linejoin="round"/>
<path d="M6.70866 12.25H4.08366C3.77424 12.25 3.47749 12.1271 3.2587 11.9083C3.03991 11.6895 2.91699 11.3928 2.91699 11.0833V2.91667C2.91699 2.60725 3.03991 2.3105 3.2587 2.09171C3.47749 1.87292 3.77424 1.75 4.08366 1.75H8.16699L11.0837 4.66667V7.58333M8.16699 11.0833H12.2503M12.2503 11.0833L10.5003 9.33333M12.2503 11.0833L10.5003 12.8333" stroke="#515B73" stroke-linecap="round" stroke-linejoin="round"/>
</g>
<defs>
<clipPath id="clip0_315_10087">
<rect width="14" height="14" fill="white"/>
</clipPath>
</defs>
</svg>
