<svg width="14" height="14" viewBox="0 0 14 14" fill="none" xmlns="http://www.w3.org/2000/svg">
<g clip-path="url(#clip0_196_7659)">
<path d="M8.1665 1.75V4.08333C8.1665 4.23804 8.22796 4.38642 8.33736 4.49581C8.44675 4.60521 8.59513 4.66667 8.74984 4.66667H11.0832" stroke="#515B73" stroke-linecap="round" stroke-linejoin="round"/>
<path d="M6.70817 12.25H4.08317C3.77375 12.25 3.47701 12.1271 3.25821 11.9083C3.03942 11.6895 2.9165 11.3928 2.9165 11.0833V2.91667C2.9165 2.60725 3.03942 2.3105 3.25821 2.09171C3.47701 1.87292 3.77375 1.75 4.08317 1.75H8.1665L11.0832 4.66667V7.58333M8.1665 11.0833H12.2498M12.2498 11.0833L10.4998 9.33333M12.2498 11.0833L10.4998 12.8333" stroke="#515B73" stroke-linecap="round" stroke-linejoin="round"/>
</g>
<defs>
<clipPath id="clip0_196_7659">
<rect width="14" height="14" fill="white"/>
</clipPath>
</defs>
</svg>
