<svg width="20" height="20" viewBox="0 0 20 20" fill="none" xmlns="http://www.w3.org/2000/svg">
<path d="M18.751 0H14.0635C13.8563 0 13.6576 0.0823102 13.5111 0.228823C13.3646 0.375336 13.2822 0.57405 13.2822 0.78125C13.2822 0.98845 13.3646 1.18716 13.5111 1.33368C13.6576 1.48019 13.8563 1.5625 14.0635 1.5625H16.8653L12.7569 5.6709C11.205 4.40241 9.225 3.77888 7.22633 3.92926C5.22766 4.07965 3.36324 4.99245 2.01868 6.47886C0.674123 7.96528 -0.0477196 9.91161 0.00245041 11.9153C0.0526205 13.919 0.870966 15.8268 2.28823 17.244C3.7055 18.6613 5.61326 19.4796 7.61695 19.5298C9.62064 19.58 11.567 18.8581 13.0534 17.5136C14.5398 16.169 15.4526 14.3046 15.603 12.3059C15.7534 10.3073 15.1298 8.32724 13.8613 6.77539L17.9697 2.66797V5.46875C17.9697 5.67595 18.0521 5.87466 18.1986 6.02118C18.3451 6.16769 18.5438 6.25 18.751 6.25C18.9582 6.25 19.1569 6.16769 19.3034 6.02118C19.4499 5.87466 19.5322 5.67595 19.5322 5.46875V0.78125C19.5322 0.57405 19.4499 0.375336 19.3034 0.228823C19.1569 0.0823102 18.9582 0 18.751 0ZM12.2315 16.1416C11.3573 17.0154 10.2436 17.6104 9.03132 17.8513C7.81902 18.0922 6.5625 17.9683 5.42062 17.4952C4.27875 17.022 3.3028 16.221 2.61616 15.1932C1.92953 14.1655 1.56304 12.9572 1.56304 11.7212C1.56304 10.4852 1.92953 9.27692 2.61616 8.24917C3.3028 7.22142 4.27875 6.42034 5.42062 5.94721C6.5625 5.47408 7.81902 5.35015 9.03132 5.59108C10.2436 5.83201 11.3573 6.42698 12.2315 7.30078C13.4018 8.47423 14.059 10.0639 14.059 11.7212C14.059 13.3785 13.4018 14.9682 12.2315 16.1416Z" fill="#101010"/>
</svg>
