<svg width="25" height="25" viewBox="0 0 25 25" fill="none" xmlns="http://www.w3.org/2000/svg">
<g opacity="0.5">
<path d="M21.0938 3.125H16.4063C16.1991 3.125 16.0004 3.20731 15.8538 3.35382C15.7073 3.50034 15.625 3.69905 15.625 3.90625C15.625 4.11345 15.7073 4.31216 15.8538 4.45868C16.0004 4.60519 16.1991 4.6875 16.4063 4.6875H19.208L15.0996 8.7959C13.5478 7.52741 11.5678 6.90388 9.5691 7.05426C7.57044 7.20465 5.70602 8.11745 4.36146 9.60386C3.0169 11.0903 2.29505 13.0366 2.34522 15.0403C2.39539 17.044 3.21374 18.9518 4.631 20.369C6.04827 21.7863 7.95603 22.6046 9.95972 22.6548C11.9634 22.705 13.9097 21.9831 15.3962 20.6386C16.8826 19.294 17.7954 17.4296 17.9458 15.4309C18.0961 13.4323 17.4726 11.4522 16.2041 9.90039L20.3125 5.79297V8.59375C20.3125 8.80095 20.3948 8.99966 20.5413 9.14618C20.6879 9.29269 20.8866 9.375 21.0938 9.375C21.301 9.375 21.4997 9.29269 21.6462 9.14618C21.7927 8.99966 21.875 8.80095 21.875 8.59375V3.90625C21.875 3.69905 21.7927 3.50034 21.6462 3.35382C21.4997 3.20731 21.301 3.125 21.0938 3.125ZM14.5742 19.2666C13.7 20.1404 12.5864 20.7354 11.3741 20.9763C10.1618 21.2172 8.90527 21.0933 7.76339 20.6202C6.62152 20.147 5.64557 19.346 4.95893 18.3182C4.2723 17.2905 3.90581 16.0822 3.90581 14.8462C3.90581 13.6102 4.2723 12.4019 4.95893 11.3742C5.64557 10.3464 6.62152 9.54534 7.76339 9.07221C8.90527 8.59908 10.1618 8.47515 11.3741 8.71608C12.5864 8.95701 13.7 9.55198 14.5742 10.4258C15.7446 11.5992 16.4018 13.1889 16.4018 14.8462C16.4018 16.5035 15.7446 18.0932 14.5742 19.2666Z" fill="#101010"/>
</g>
</svg>
