<svg width="10" height="10" viewBox="0 0 10 10" fill="none" xmlns="http://www.w3.org/2000/svg">
<path d="M8.34627 3.97127L5.22127 7.09627C5.19224 7.12532 5.15778 7.14837 5.11984 7.1641C5.08191 7.17983 5.04124 7.18792 5.00017 7.18792C4.95911 7.18792 4.91844 7.17983 4.8805 7.1641C4.84257 7.14837 4.8081 7.12532 4.77908 7.09627L1.65408 3.97127C1.59544 3.91263 1.5625 3.8331 1.5625 3.75017C1.5625 3.66725 1.59544 3.58772 1.65408 3.52908C1.71272 3.47044 1.79225 3.4375 1.87517 3.4375C1.9581 3.4375 2.03763 3.47044 2.09627 3.52908L5.00017 6.43338L7.90408 3.52908C7.93311 3.50005 7.96758 3.47701 8.00552 3.4613C8.04345 3.44559 8.08411 3.4375 8.12517 3.4375C8.16623 3.4375 8.20689 3.44559 8.24483 3.4613C8.28276 3.47701 8.31723 3.50005 8.34627 3.52908C8.3753 3.55811 8.39833 3.59258 8.41405 3.63052C8.42976 3.66845 8.43785 3.70911 8.43785 3.75017C8.43785 3.79123 8.42976 3.83189 8.41405 3.86983C8.39833 3.90776 8.3753 3.94223 8.34627 3.97127Z" fill="white"/>
</svg>
