<svg width="26" height="22" viewBox="0 0 26 22" fill="none" xmlns="http://www.w3.org/2000/svg">
<path fill-rule="evenodd" clip-rule="evenodd" d="M5.33356 3.57521C4.74441 3.57521 4.26681 3.97538 4.26681 4.46901V16.9823C4.26681 17.4759 4.74441 17.8761 5.33356 17.8761H20.2681C20.8572 17.8761 21.3348 17.4759 21.3348 16.9823V4.46901C21.3348 3.97538 20.8572 3.57521 20.2681 3.57521H5.33356ZM2.1333 4.46901C2.1333 2.98811 3.5661 1.7876 5.33356 1.7876H20.2681C22.0355 1.7876 23.4683 2.98811 23.4683 4.46901V16.9823C23.4683 18.4632 22.0355 19.6637 20.2681 19.6637H5.33356C3.5661 19.6637 2.1333 18.4632 2.1333 16.9823V4.46901Z" fill="black"/>
<path fill-rule="evenodd" clip-rule="evenodd" d="M9.06727 7.1504C8.7727 7.1504 8.5339 7.35049 8.5339 7.59731C8.5339 7.84412 8.7727 8.04421 9.06727 8.04421C9.36185 8.04421 9.60065 7.84412 9.60065 7.59731C9.60065 7.35049 9.36185 7.1504 9.06727 7.1504ZM6.40039 7.59731C6.40039 6.36322 7.59439 5.36279 9.06727 5.36279C10.5401 5.36279 11.7342 6.36322 11.7342 7.59731C11.7342 8.83139 10.5401 9.83182 9.06727 9.83182C7.59439 9.83182 6.40039 8.83139 6.40039 7.59731Z" fill="black"/>
<path fill-rule="evenodd" clip-rule="evenodd" d="M16.3138 8.30598C16.7304 7.95693 17.4058 7.95693 17.8224 8.30598L23.1562 12.775C23.5728 13.1241 23.5728 13.69 23.1562 14.039C22.7396 14.3881 22.0642 14.3881 21.6476 14.039L17.0681 10.202L6.08815 19.4019C5.67156 19.7509 4.99613 19.7509 4.57953 19.4019C4.16294 19.0528 4.16294 18.4869 4.57953 18.1378L16.3138 8.30598Z" fill="black"/>
</svg>
