<svg width="30" height="33" viewBox="0 0 30 33" fill="none" xmlns="http://www.w3.org/2000/svg">
<path d="M19.1735 25.8086C19.2596 25.9034 19.3278 26.016 19.3744 26.1399C19.4209 26.2637 19.4449 26.3965 19.4449 26.5306C19.4449 26.6647 19.4209 26.7974 19.3744 26.9213C19.3278 27.0452 19.2596 27.1577 19.1735 27.2525C19.0875 27.3473 18.9854 27.4225 18.873 27.4738C18.7606 27.5251 18.6401 27.5516 18.5184 27.5516C18.3968 27.5516 18.2763 27.5251 18.1639 27.4738C18.0515 27.4225 17.9494 27.3473 17.8633 27.2525L8.60408 17.0484C8.51799 16.9537 8.4497 16.8411 8.4031 16.7173C8.3565 16.5934 8.33252 16.4606 8.33252 16.3265C8.33252 16.1924 8.3565 16.0596 8.4031 15.9357C8.4497 15.8119 8.51799 15.6993 8.60408 15.6046L17.8633 5.40048C18.0371 5.20901 18.2727 5.10144 18.5184 5.10144C18.7641 5.10144 18.9998 5.20901 19.1735 5.40048C19.3473 5.59195 19.4449 5.85164 19.4449 6.12242C19.4449 6.3932 19.3473 6.65288 19.1735 6.84435L10.5682 16.3265L19.1735 25.8086Z" fill="#101010"/>
</svg>
