<svg width="12" height="12" viewBox="0 0 12 12" fill="none" xmlns="http://www.w3.org/2000/svg">
<g clip-path="url(#clip0_129_8307)">
<path d="M1.5 6C1.5 7.19347 1.97411 8.33807 2.81802 9.18198C3.66193 10.0259 4.80653 10.5 6 10.5C7.19347 10.5 8.33807 10.0259 9.18198 9.18198C10.0259 8.33807 10.5 7.19347 10.5 6C10.5 4.80653 10.0259 3.66193 9.18198 2.81802C8.33807 1.97411 7.19347 1.5 6 1.5" stroke="white" stroke-linecap="round" stroke-linejoin="round"/>
<path d="M8.5 6C8.5 5.50555 8.35338 5.0222 8.07868 4.61108C7.80397 4.19995 7.41352 3.87952 6.95671 3.6903C6.49989 3.50108 5.99723 3.45157 5.51228 3.54804C5.02732 3.6445 4.58187 3.8826 4.23223 4.23223C3.8826 4.58187 3.6445 5.02732 3.54804 5.51228C3.45157 5.99723 3.50108 6.49989 3.6903 6.95671C3.87952 7.41352 4.19995 7.80397 4.61108 8.07868C5.0222 8.35338 5.50555 8.5 6 8.5" stroke="white" stroke-linecap="round" stroke-linejoin="round"/>
</g>
<defs>
<clipPath id="clip0_129_8307">
<rect width="12" height="12" fill="white"/>
</clipPath>
</defs>
</svg>
