<svg width="21" height="21" viewBox="0 0 21 21" fill="none" xmlns="http://www.w3.org/2000/svg">
<g clip-path="url(#clip0_219_5095)">
<path d="M10.2497 1.92383C6.94405 1.92383 4.27051 4.60128 4.27051 7.91174C4.27051 12.4027 10.2497 19.0322 10.2497 19.0322C10.2497 19.0322 16.2288 12.4027 16.2288 7.91174C16.2288 4.60128 13.5553 1.92383 10.2497 1.92383ZM5.97884 7.91174C5.97884 5.55079 7.89217 3.63466 10.2497 3.63466C12.6072 3.63466 14.5205 5.55079 14.5205 7.91174C14.5205 10.3753 12.0605 14.0622 10.2497 16.3633C8.47301 14.0793 5.97884 10.3497 5.97884 7.91174Z" fill="black" fill-opacity="0.7"/>
<path d="M10.2497 9.83763C11.429 9.83763 12.3851 8.88017 12.3851 7.69909C12.3851 6.518 11.429 5.56055 10.2497 5.56055C9.07032 5.56055 8.11426 6.518 8.11426 7.69909C8.11426 8.88017 9.07032 9.83763 10.2497 9.83763Z" fill="black" fill-opacity="0.7"/>
</g>
<defs>
<clipPath id="clip0_219_5095">
<rect width="20.5" height="20.53" fill="white"/>
</clipPath>
</defs>
</svg>
