<svg width="22" height="22" viewBox="0 0 22 22" fill="none" xmlns="http://www.w3.org/2000/svg">
<mask id="path-1-inside-1_206_6409" fill="white">
<path d="M2.2 2.2H19.8V15.4H3.487L2.2 16.687V2.2ZM2.2 0C0.99 0 0.011 0.99 0.011 2.2L0 22L4.4 17.6H19.8C21.01 17.6 22 16.61 22 15.4V2.2C22 0.99 21.01 0 19.8 0H2.2ZM4.4 11H17.6V13.2H4.4V11ZM4.4 7.7H17.6V9.9H4.4V7.7ZM4.4 4.4H17.6V6.6H4.4V4.4Z"/>
</mask>
<path d="M2.2 2.2H19.8V15.4H3.487L2.2 16.687V2.2ZM2.2 0C0.99 0 0.011 0.99 0.011 2.2L0 22L4.4 17.6H19.8C21.01 17.6 22 16.61 22 15.4V2.2C22 0.99 21.01 0 19.8 0H2.2ZM4.4 11H17.6V13.2H4.4V11ZM4.4 7.7H17.6V9.9H4.4V7.7ZM4.4 4.4H17.6V6.6H4.4V4.4Z" fill="white"/>
<path d="M2.2 2.2V-1.8H-1.8V2.2H2.2ZM19.8 2.2H23.8V-1.8H19.8V2.2ZM19.8 15.4V19.4H23.8V15.4H19.8ZM3.487 15.4V11.4H1.83015L0.658574 12.5716L3.487 15.4ZM2.2 16.687H-1.8V26.3439L5.02843 19.5154L2.2 16.687ZM0.011 2.2L4.011 2.20222V2.2H0.011ZM0 22L-4 21.9978L-4.00537 31.6622L2.82843 24.8284L0 22ZM4.4 17.6V13.6H2.74315L1.57157 14.7716L4.4 17.6ZM4.4 11V7H0.4V11H4.4ZM17.6 11H21.6V7H17.6V11ZM17.6 13.2V17.2H21.6V13.2H17.6ZM4.4 13.2H0.4V17.2H4.4V13.2ZM4.4 7.7V3.7H0.4V7.7H4.4ZM17.6 7.7H21.6V3.7H17.6V7.7ZM17.6 9.9V13.9H21.6V9.9H17.6ZM4.4 9.9H0.4V13.9H4.4V9.9ZM4.4 4.4V0.4H0.4V4.4H4.4ZM17.6 4.4H21.6V0.4H17.6V4.4ZM17.6 6.6V10.6H21.6V6.6H17.6ZM4.4 6.6H0.4V10.6H4.4V6.6ZM2.2 2.2V6.2H19.8V2.2V-1.8H2.2V2.2ZM19.8 2.2H15.8V15.4H19.8H23.8V2.2H19.8ZM19.8 15.4V11.4H3.487V15.4V19.4H19.8V15.4ZM3.487 15.4L0.658574 12.5716L-0.628427 13.8586L2.2 16.687L5.02843 19.5154L6.31543 18.2284L3.487 15.4ZM2.2 16.687H6.2V2.2H2.2H-1.8V16.687H2.2ZM2.2 0V-4C-1.24519 -4 -3.989 -1.193 -3.989 2.2H0.011H4.011C4.011 3.173 3.22519 4 2.2 4V0ZM0.011 2.2L-3.989 2.19778L-4 21.9978L0 22L4 22.0022L4.011 2.20222L0.011 2.2ZM0 22L2.82843 24.8284L7.22843 20.4284L4.4 17.6L1.57157 14.7716L-2.82843 19.1716L0 22ZM4.4 17.6V21.6H19.8V17.6V13.6H4.4V17.6ZM19.8 17.6V21.6C23.2191 21.6 26 18.8191 26 15.4H22H18C18 14.4009 18.8009 13.6 19.8 13.6V17.6ZM22 15.4H26V2.2H22H18V15.4H22ZM22 2.2H26C26 -1.21914 23.2191 -4 19.8 -4V0V4C18.8009 4 18 3.19914 18 2.2H22ZM19.8 0V-4H2.2V0V4H19.8V0ZM4.4 11V15H17.6V11V7H4.4V11ZM17.6 11H13.6V13.2H17.6H21.6V11H17.6ZM17.6 13.2V9.2H4.4V13.2V17.2H17.6V13.2ZM4.4 13.2H8.4V11H4.4H0.4V13.2H4.4ZM4.4 7.7V11.7H17.6V7.7V3.7H4.4V7.7ZM17.6 7.7H13.6V9.9H17.6H21.6V7.7H17.6ZM17.6 9.9V5.9H4.4V9.9V13.9H17.6V9.9ZM4.4 9.9H8.4V7.7H4.4H0.4V9.9H4.4ZM4.4 4.4V8.4H17.6V4.4V0.4H4.4V4.4ZM17.6 4.4H13.6V6.6H17.6H21.6V4.4H17.6ZM17.6 6.6V2.6H4.4V6.6V10.6H17.6V6.6ZM4.4 6.6H8.4V4.4H4.4H0.4V6.6H4.4Z" fill="#F0FDF4" mask="url(#path-1-inside-1_206_6409)"/>
</svg>
