<svg width="30" height="30" viewBox="0 0 30 30" fill="none" xmlns="http://www.w3.org/2000/svg">
<path d="M19.6875 17.8123C19.6875 18.061 19.5887 18.2994 19.4129 18.4752C19.2371 18.6511 18.9986 18.7498 18.75 18.7498H11.25C11.0014 18.7498 10.7629 18.6511 10.5871 18.4752C10.4113 18.2994 10.3125 18.061 10.3125 17.8123C10.3125 17.5637 10.4113 17.3252 10.5871 17.1494C10.7629 16.9736 11.0014 16.8748 11.25 16.8748H18.75C18.9986 16.8748 19.2371 16.9736 19.4129 17.1494C19.5887 17.3252 19.6875 17.5637 19.6875 17.8123ZM18.75 13.1248H11.25C11.0014 13.1248 10.7629 13.2236 10.5871 13.3994C10.4113 13.5752 10.3125 13.8137 10.3125 14.0623C10.3125 14.311 10.4113 14.5494 10.5871 14.7252C10.7629 14.9011 11.0014 14.9998 11.25 14.9998H18.75C18.9986 14.9998 19.2371 14.9011 19.4129 14.7252C19.5887 14.5494 19.6875 14.311 19.6875 14.0623C19.6875 13.8137 19.5887 13.5752 19.4129 13.3994C19.2371 13.2236 18.9986 13.1248 18.75 13.1248ZM25.3125 5.62483V25.3123C25.3125 25.8096 25.115 26.2865 24.7633 26.6382C24.4117 26.9898 23.9348 27.1873 23.4375 27.1873H6.5625C6.06522 27.1873 5.58831 26.9898 5.23667 26.6382C4.88504 26.2865 4.6875 25.8096 4.6875 25.3123V5.62483C4.6875 5.12755 4.88504 4.65064 5.23667 4.29901C5.58831 3.94737 6.06522 3.74983 6.5625 3.74983H10.8117C11.3385 3.16005 11.9839 2.68818 12.7056 2.36509C13.4274 2.04201 14.2092 1.875 15 1.875C15.7908 1.875 16.5726 2.04201 17.2944 2.36509C18.0161 2.68818 18.6615 3.16005 19.1883 3.74983H23.4375C23.9348 3.74983 24.4117 3.94737 24.7633 4.29901C25.115 4.65064 25.3125 5.12755 25.3125 5.62483ZM11.25 7.49983H18.75C18.75 6.50527 18.3549 5.55144 17.6516 4.84818C16.9484 4.14492 15.9946 3.74983 15 3.74983C14.0054 3.74983 13.0516 4.14492 12.3483 4.84818C11.6451 5.55144 11.25 6.50527 11.25 7.49983ZM23.4375 5.62483H20.3027C20.516 6.22696 20.625 6.86105 20.625 7.49983V8.43733C20.625 8.68597 20.5262 8.92443 20.3504 9.10024C20.1746 9.27606 19.9361 9.37483 19.6875 9.37483H10.3125C10.0639 9.37483 9.8254 9.27606 9.64959 9.10024C9.47377 8.92443 9.375 8.68597 9.375 8.43733V7.49983C9.37502 6.86105 9.48401 6.22696 9.69727 5.62483H6.5625V25.3123H23.4375V5.62483Z" fill="#101010" stroke="black" stroke-width="0.5"/>
</svg>
