<svg width="25" height="25" viewBox="0 0 25 25" fill="none" xmlns="http://www.w3.org/2000/svg">
<g opacity="0.5">
<path d="M21.875 14.8438C21.875 15.051 21.7927 15.2497 21.6462 15.3962C21.4997 15.5427 21.301 15.625 21.0938 15.625H18.75V17.1875H20.3125C20.5197 17.1875 20.7184 17.2698 20.8649 17.4163C21.0114 17.5628 21.0938 17.7615 21.0938 17.9688C21.0938 18.176 21.0114 18.3747 20.8649 18.5212C20.7184 18.6677 20.5197 18.75 20.3125 18.75H18.75V20.3125C18.75 20.5197 18.6677 20.7184 18.5212 20.8649C18.3747 21.0114 18.176 21.0938 17.9688 21.0938C17.7615 21.0938 17.5628 21.0114 17.4163 20.8649C17.2698 20.7184 17.1875 20.5197 17.1875 20.3125V14.8438C17.1875 14.6365 17.2698 14.4378 17.4163 14.2913C17.5628 14.1448 17.7615 14.0625 17.9688 14.0625H21.0938C21.301 14.0625 21.4997 14.1448 21.6462 14.2913C21.7927 14.4378 21.875 14.6365 21.875 14.8438ZM8.98438 16.7969C8.98438 17.5221 8.69629 18.2176 8.1835 18.7304C7.6707 19.2432 6.9752 19.5312 6.25 19.5312H5.46875V20.3125C5.46875 20.5197 5.38644 20.7184 5.23993 20.8649C5.09341 21.0114 4.8947 21.0938 4.6875 21.0938C4.4803 21.0938 4.28159 21.0114 4.13507 20.8649C3.98856 20.7184 3.90625 20.5197 3.90625 20.3125V14.8438C3.90625 14.6365 3.98856 14.4378 4.13507 14.2913C4.28159 14.1448 4.4803 14.0625 4.6875 14.0625H6.25C6.9752 14.0625 7.6707 14.3506 8.1835 14.8634C8.69629 15.3762 8.98438 16.0717 8.98438 16.7969ZM7.42188 16.7969C7.42188 16.4861 7.29841 16.188 7.07864 15.9682C6.85887 15.7485 6.5608 15.625 6.25 15.625H5.46875V17.9688H6.25C6.5608 17.9688 6.85887 17.8453 7.07864 17.6255C7.29841 17.4057 7.42188 17.1077 7.42188 16.7969ZM16.0156 17.5781C16.0156 18.5105 15.6452 19.4047 14.9859 20.064C14.3266 20.7234 13.4324 21.0938 12.5 21.0938H10.9375C10.7303 21.0938 10.5316 21.0114 10.3851 20.8649C10.2386 20.7184 10.1562 20.5197 10.1562 20.3125V14.8438C10.1562 14.6365 10.2386 14.4378 10.3851 14.2913C10.5316 14.1448 10.7303 14.0625 10.9375 14.0625H12.5C13.4324 14.0625 14.3266 14.4329 14.9859 15.0922C15.6452 15.7515 16.0156 16.6457 16.0156 17.5781ZM14.4531 17.5781C14.4531 17.0601 14.2473 16.5633 13.8811 16.1971C13.5148 15.8308 13.018 15.625 12.5 15.625H11.7188V19.5312H12.5C13.018 19.5312 13.5148 19.3255 13.8811 18.9592C14.2473 18.5929 14.4531 18.0961 14.4531 17.5781ZM3.90625 10.9375V3.90625C3.90625 3.49185 4.07087 3.09442 4.3639 2.8014C4.65692 2.50837 5.05435 2.34375 5.46875 2.34375H14.8438C14.9464 2.34367 15.048 2.36381 15.1429 2.40302C15.2377 2.44223 15.3239 2.49974 15.3965 2.57227L20.8652 8.04102C20.9378 8.11362 20.9953 8.19981 21.0345 8.29465C21.0737 8.38949 21.0938 8.49112 21.0938 8.59375V10.9375C21.0938 11.1447 21.0114 11.3434 20.8649 11.4899C20.7184 11.6364 20.5197 11.7188 20.3125 11.7188C20.1053 11.7188 19.9066 11.6364 19.7601 11.4899C19.6136 11.3434 19.5312 11.1447 19.5312 10.9375V9.375H14.8438C14.6365 9.375 14.4378 9.29269 14.2913 9.14618C14.1448 8.99966 14.0625 8.80095 14.0625 8.59375V3.90625H5.46875V10.9375C5.46875 11.1447 5.38644 11.3434 5.23993 11.4899C5.09341 11.6364 4.8947 11.7188 4.6875 11.7188C4.4803 11.7188 4.28159 11.6364 4.13507 11.4899C3.98856 11.3434 3.90625 11.1447 3.90625 10.9375ZM15.625 7.8125H18.4268L15.625 5.01074V7.8125Z" fill="#101010"/>
</g>
</svg>
