<svg width="17" height="17" viewBox="0 0 17 17" fill="none" xmlns="http://www.w3.org/2000/svg">
<path d="M15.8125 10.6333H15.0141L13.1948 1.25098H13.75C13.9323 1.25098 14.1072 1.18508 14.2361 1.06778C14.3651 0.950476 14.4375 0.791381 14.4375 0.62549C14.4375 0.4596 14.3651 0.300504 14.2361 0.183202C14.1072 0.0658998 13.9323 0 13.75 0H2.75C2.56766 0 2.3928 0.0658998 2.26386 0.183202C2.13493 0.300504 2.0625 0.4596 2.0625 0.62549C2.0625 0.791381 2.13493 0.950476 2.26386 1.06778C2.3928 1.18508 2.56766 1.25098 2.75 1.25098H3.30516L1.48586 10.6333H0.6875C0.505164 10.6333 0.330295 10.6992 0.201364 10.8165C0.072433 10.9338 0 11.0929 0 11.2588C0 11.4247 0.072433 11.5838 0.201364 11.7011C0.330295 11.8184 0.505164 11.8843 0.6875 11.8843H7.5625V16.2627C7.5625 16.4286 7.63493 16.5877 7.76386 16.705C7.8928 16.8223 8.06766 16.8882 8.25 16.8882C8.43234 16.8882 8.60721 16.8223 8.73614 16.705C8.86507 16.5877 8.9375 16.4286 8.9375 16.2627V11.8843H15.8125C15.9948 11.8843 16.1697 11.8184 16.2986 11.7011C16.4276 11.5838 16.5 11.4247 16.5 11.2588C16.5 11.0929 16.4276 10.9338 16.2986 10.8165C16.1697 10.6992 15.9948 10.6333 15.8125 10.6333ZM4.70164 1.25098H11.7984L13.6177 10.6333H2.88234L4.70164 1.25098Z" fill="#101010"/>
</svg>
