<svg width="16" height="16" viewBox="0 0 16 16" fill="none" xmlns="http://www.w3.org/2000/svg">
<g clip-path="url(#clip0_586_7576)">
<path d="M11.3333 11.3333H12.6667C13.0203 11.3333 13.3594 11.1929 13.6095 10.9428C13.8595 10.6928 14 10.3536 14 10V7.33333C14 6.97971 13.8595 6.64057 13.6095 6.39052C13.3594 6.14048 13.0203 6 12.6667 6H3.33333C2.97971 6 2.64057 6.14048 2.39052 6.39052C2.14048 6.64057 2 6.97971 2 7.33333V10C2 10.3536 2.14048 10.6928 2.39052 10.9428C2.64057 11.1929 2.97971 11.3333 3.33333 11.3333H4.66667" stroke="#515B73" stroke-linecap="round" stroke-linejoin="round"/>
<path d="M11.3337 6V3.33333C11.3337 2.97971 11.1932 2.64057 10.9431 2.39052C10.6931 2.14048 10.3539 2 10.0003 2H6.00033C5.6467 2 5.30756 2.14048 5.05752 2.39052C4.80747 2.64057 4.66699 2.97971 4.66699 3.33333V6" stroke="#515B73" stroke-linecap="round" stroke-linejoin="round"/>
<path d="M4.66699 10.0013C4.66699 9.64768 4.80747 9.30854 5.05752 9.05849C5.30756 8.80844 5.6467 8.66797 6.00033 8.66797H10.0003C10.3539 8.66797 10.6931 8.80844 10.9431 9.05849C11.1932 9.30854 11.3337 9.64768 11.3337 10.0013V12.668C11.3337 13.0216 11.1932 13.3607 10.9431 13.6108C10.6931 13.8608 10.3539 14.0013 10.0003 14.0013H6.00033C5.6467 14.0013 5.30756 13.8608 5.05752 13.6108C4.80747 13.3607 4.66699 13.0216 4.66699 12.668V10.0013Z" stroke="#515B73" stroke-linecap="round" stroke-linejoin="round"/>
</g>
<defs>
<clipPath id="clip0_586_7576">
<rect width="16" height="16" fill="white"/>
</clipPath>
</defs>
</svg>
