<svg width="31" height="34" viewBox="0 0 31 34" fill="none" xmlns="http://www.w3.org/2000/svg">
<path d="M27.3307 18.6018C27.3944 18.0597 27.4422 17.5175 27.4422 16.9415C27.4422 16.3655 27.3944 15.8234 27.3307 15.2813L30.6914 12.4859C30.994 12.2318 31.0737 11.7744 30.8825 11.4016L27.697 5.53988C27.5537 5.26882 27.2829 5.11634 26.9962 5.11634C26.9006 5.11634 26.8051 5.13328 26.7254 5.16717L22.7595 6.86132C21.9312 6.18366 21.0393 5.62459 20.0677 5.20105L19.4624 0.711544C19.4147 0.304948 19.0802 0 18.682 0H12.311C11.9128 0 11.5783 0.304948 11.5305 0.711544L10.9253 5.20105C9.95368 5.62459 9.06173 6.2006 8.2335 6.86132L4.26753 5.16717C4.17196 5.13328 4.0764 5.11634 3.98083 5.11634C3.71006 5.11634 3.43929 5.26882 3.29595 5.53988L0.110428 11.4016C-0.0966302 11.7744 -0.00106445 12.2318 0.30156 12.4859L3.66228 15.2813C3.59857 15.8234 3.55079 16.3825 3.55079 16.9415C3.55079 17.5006 3.59857 18.0597 3.66228 18.6018L0.30156 21.3972C-0.00106445 21.6513 -0.0807026 22.1087 0.110428 22.4814L3.29595 28.3432C3.43929 28.6142 3.71006 28.7667 3.99676 28.7667C4.09233 28.7667 4.18789 28.7498 4.26753 28.7159L8.2335 27.0217C9.06173 27.6994 9.95368 28.2585 10.9253 28.682L11.5305 33.1715C11.5783 33.5781 11.9128 33.8831 12.311 33.8831H18.682C19.0802 33.8831 19.4147 33.5781 19.4624 33.1715L20.0677 28.682C21.0393 28.2585 21.9312 27.6825 22.7595 27.0217L26.7254 28.7159C26.821 28.7498 26.9166 28.7667 27.0121 28.7667C27.2829 28.7667 27.5537 28.6142 27.697 28.3432L30.8825 22.4814C31.0737 22.1087 30.994 21.6513 30.6914 21.3972L27.3307 18.6018ZM24.177 15.7048C24.2407 16.23 24.2566 16.5858 24.2566 16.9415C24.2566 17.2973 24.2248 17.67 24.177 18.1783L23.954 20.0927L25.3716 21.2786L27.0918 22.7017L25.9768 24.7516L23.954 23.8876L22.2976 23.176L20.8641 24.328C20.1792 24.8702 19.5262 25.2768 18.8731 25.5648L17.1848 26.2933L16.93 28.2076L16.6114 30.4948H14.3815L14.0789 28.2076L13.8241 26.2933L12.1358 25.5648C11.4509 25.2598 10.8138 24.8702 10.1767 24.3619L8.72725 23.176L7.03893 23.9045L5.01612 24.7685L3.90119 22.7186L5.62137 21.2955L7.03893 20.1096L6.81594 18.1952C6.76816 17.67 6.7363 17.2804 6.7363 16.9415C6.7363 16.6027 6.76816 16.213 6.81594 15.7048L7.03893 13.7904L5.62137 12.6045L3.90119 11.1814L5.01612 9.13148L7.03893 9.9955L8.6954 10.707L10.1289 9.55502C10.8138 9.01289 11.4668 8.6063 12.1198 8.31829L13.8082 7.58981L14.063 5.67541L14.3815 3.38831H16.5955L16.8981 5.67541L17.1529 7.58981L18.8413 8.31829C19.5262 8.62324 20.1633 9.01289 20.8004 9.52114L22.2498 10.707L23.9381 9.97856L25.9609 9.11454L27.0758 11.1645L25.3716 12.6045L23.954 13.7904L24.177 15.7048ZM15.4965 10.1649C11.9765 10.1649 9.12544 13.1975 9.12544 16.9415C9.12544 20.6856 11.9765 23.7181 15.4965 23.7181C19.0165 23.7181 21.8675 20.6856 21.8675 16.9415C21.8675 13.1975 19.0165 10.1649 15.4965 10.1649ZM15.4965 20.3298C13.7444 20.3298 12.311 18.8051 12.311 16.9415C12.311 15.078 13.7444 13.5532 15.4965 13.5532C17.2485 13.5532 18.682 15.078 18.682 16.9415C18.682 18.8051 17.2485 20.3298 15.4965 20.3298Z" fill="black"/>
</svg>
