<svg width="14" height="14" viewBox="0 0 14 14" fill="none" xmlns="http://www.w3.org/2000/svg">
<g clip-path="url(#clip0_586_227)">
<path d="M2.9165 3.20841C2.9165 3.13106 2.94723 3.05687 3.00193 3.00218C3.05663 2.94748 3.13082 2.91675 3.20817 2.91675H5.5415C5.61886 2.91675 5.69305 2.94748 5.74774 3.00218C5.80244 3.05687 5.83317 3.13106 5.83317 3.20841V5.54175C5.83317 5.6191 5.80244 5.69329 5.74774 5.74799C5.69305 5.80269 5.61886 5.83341 5.5415 5.83341H3.20817C3.13082 5.83341 3.05663 5.80269 3.00193 5.74799C2.94723 5.69329 2.9165 5.6191 2.9165 5.54175V3.20841Z" stroke="#515B73" stroke-linecap="round" stroke-linejoin="round"/>
<path d="M2.9165 8.45841C2.9165 8.38106 2.94723 8.30687 3.00193 8.25218C3.05663 8.19748 3.13082 8.16675 3.20817 8.16675H5.5415C5.61886 8.16675 5.69305 8.19748 5.74774 8.25218C5.80244 8.30687 5.83317 8.38106 5.83317 8.45841V10.7917C5.83317 10.8691 5.80244 10.9433 5.74774 10.998C5.69305 11.0527 5.61886 11.0834 5.5415 11.0834H3.20817C3.13082 11.0834 3.05663 11.0527 3.00193 10.998C2.94723 10.9433 2.9165 10.8691 2.9165 10.7917V8.45841Z" stroke="#515B73" stroke-linecap="round" stroke-linejoin="round"/>
<path d="M8.1665 8.75L9.9165 10.5L11.6665 8.75" stroke="#515B73" stroke-linecap="round" stroke-linejoin="round"/>
<path d="M9.9165 10.5V3.5" stroke="#515B73" stroke-linecap="round" stroke-linejoin="round"/>
</g>
<defs>
<clipPath id="clip0_586_227">
<rect width="14" height="14" fill="white"/>
</clipPath>
</defs>
</svg>
