<svg width="36" height="31" viewBox="0 0 36 31" fill="none" xmlns="http://www.w3.org/2000/svg">
<g clip-path="url(#clip0_206_6368)">
<path d="M7.41016 8.78078C7.41016 10.1115 8.03471 11.3878 9.14642 12.3288C10.2581 13.2697 11.7659 13.7984 13.3381 13.7984C14.9103 13.7984 16.4182 13.2697 17.5299 12.3288C18.6416 11.3878 19.2661 10.1115 19.2661 8.78078C19.2661 7.45003 18.6416 6.17379 17.5299 5.2328C16.4182 4.29182 14.9103 3.76318 13.3381 3.76318C11.7659 3.76318 10.2581 4.29182 9.14642 5.2328C8.03471 6.17379 7.41016 7.45003 7.41016 8.78078Z" stroke="white" stroke-width="3" stroke-linecap="round" stroke-linejoin="round"/>
<path d="M4.44629 26.3423V23.8335C4.44629 22.5028 5.07084 21.2265 6.18256 20.2855C7.29427 19.3446 8.80208 18.8159 10.3743 18.8159H16.3023C17.8745 18.8159 19.3823 19.3446 20.494 20.2855C21.6057 21.2265 22.2303 22.5028 22.2303 23.8335V26.3423" stroke="white" stroke-width="3" stroke-linecap="round" stroke-linejoin="round"/>
<path d="M23.7119 3.92627C24.987 4.20262 26.1173 4.83032 26.9244 5.71042C27.7314 6.59051 28.1695 7.67295 28.1695 8.78707C28.1695 9.90119 27.7314 10.9836 26.9244 11.8637C26.1173 12.7438 24.987 13.3715 23.7119 13.6479" stroke="white" stroke-width="3" stroke-linecap="round" stroke-linejoin="round"/>
<path d="M31.1218 26.3424V23.8336C31.1143 22.7262 30.6741 21.6519 29.8699 20.7784C29.0657 19.9048 27.9426 19.281 26.6758 19.0042" stroke="white" stroke-width="3" stroke-linecap="round" stroke-linejoin="round"/>
</g>
<defs>
<clipPath id="clip0_206_6368">
<rect width="35.568" height="30.1056" fill="white"/>
</clipPath>
</defs>
</svg>
